<?xml version="1.0" encoding="UTF-8" standalone="no"?>
<!-- Created with Inkscape (http://www.inkscape.org/) -->

<svg
   width="20.351177mm"
   height="19.993885mm"
   viewBox="0 0 20.351177 19.993885"
   version="1.1"
   id="svg331"
   xmlns="http://www.w3.org/2000/svg"
   xmlns:svg="http://www.w3.org/2000/svg">
  <defs
     id="defs328" />
  <g
     id="layer1"
     transform="translate(-26.642941,-33.13293)">
    <path
       d="m 46.882251,33.154996 c -0.0318,-0.0176 -0.0674,-0.0247 -0.10195,-0.0212 l -0.0318,0.004 c -0.0667,0.007 -0.12277,0.0317 -0.12277,0.0317 l 0.01,-0.004 c -0.12665,0.0494 -0.28363,0.1517 -0.47272,0.3175 -0.93909,0.81845 -2.07998,1.41464 -3.33798,1.70392 h 10e-4 l -13.35716,2.35656 c -2.06389,0.36336 -3.3172,2.48003 -2.64223,4.46616 v 0 l 13.9716,-2.46583 c 2.73474,-0.47978 4.9911,-2.413 5.89104,-5.03767 3.5e-4,0 0.24342,-0.73025 0.2861,-0.92075 0.0427,-0.19403 0.0127,-0.37394 -0.0928,-0.43039"
       style="fill:#1591c4;fill-opacity:1;fill-rule:nonzero;stroke:none;stroke-width:0.0352778"
       id="path1028" />
    <path
       d="m 44.507351,39.755466 h -0.0265 c -0.0667,0.0106 -0.12312,0.0353 -0.12312,0.0353 l 0.0254,-0.007 c -0.12841,0.0459 -0.28963,0.14464 -0.48824,0.3175 -0.93945,0.82197 -2.07963,1.41816 -3.33763,1.70744 l -13.0186,2.29306 1.2838,3.77472 9.70738,-1.71097 c 2.73474,-0.48331 4.9911,-2.413 5.89104,-5.03767 v 0 -0.004 c 7.1e-4,0 0.24342,-0.72672 0.2861,-0.91722 0.0427,-0.19403 0.0127,-0.37394 -0.0928,-0.43392 -0.0335,-0.0176 -0.0705,-0.0212 -0.10689,-0.0176"
       style="fill:#1591c4;fill-opacity:1;fill-rule:nonzero;stroke:none;stroke-width:0.0352778"
       id="path1030" />
    <path
       d="m 42.234761,46.373586 -0.004,0.004 c -0.0748,0.004 -0.14112,0.0317 -0.14112,0.0317 0,0 0.0243,-0.007 0.0582,-0.0106 -0.1337,0.0353 -0.3055,0.13758 -0.52105,0.32456 -0.93909,0.82197 -2.07927,1.41816 -3.33657,1.70391 l -8.75542,1.54517 c 0.73865,2.17311 2.95081,3.48192 5.20982,3.08328 l 1.51723,-0.26811 c 2.73463,-0.48331 4.991,-2.413 5.89093,-5.0412 v 0 l 0.001,-0.004 c 0.006,-0.0176 0.24271,-0.72672 0.28505,-0.91722 0.0427,-0.1905 0.0127,-0.37042 -0.0928,-0.43039 -0.0349,-0.0176 -0.0737,-0.0212 -0.11148,-0.0212"
       style="fill:#1591c4;fill-opacity:1;fill-rule:nonzero;stroke:none;stroke-width:0.0352778"
       id="path1032" />
  </g>
</svg>
